<?xml version="1.0" encoding="utf-8"?>
<svg viewBox="0 0 750 2500" style="enable-background:new 0 0 750 2500;" xmlns="http://www.w3.org/2000/svg">
  <path d="M -6.753 2472.941 C -15.479 2492.957 8.983 2495.442 8.983 2495.442 C 8.983 2495.442 15.683 2489.362 22.484 2489.382 C 29.184 2489.401 29.183 2495.502 35.983 2495.521 C 42.683 2495.541 42.684 2489.441 49.483 2489.461 C 56.183 2489.481 56.183 2495.581 62.983 2495.601 C 69.683 2495.62 69.683 2489.52 76.483 2489.54 C 83.183 2489.559 83.183 2495.659 89.983 2495.679 C 96.683 2495.699 96.683 2489.599 103.483 2489.619 C 110.183 2489.638 110.184 2495.738 116.984 2495.758 C 123.683 2495.778 123.683 2489.678 130.483 2489.698 C 137.183 2489.717 137.183 2495.817 143.983 2495.837 C 150.683 2495.857 150.683 2489.757 157.483 2489.777 C 164.183 2489.797 164.183 2495.897 170.983 2495.917 C 177.783 2495.937 177.683 2489.836 184.483 2489.856 C 191.183 2489.876 191.183 2495.976 197.983 2495.996 C 204.683 2496.016 204.683 2489.916 211.483 2489.935 C 218.183 2489.954 218.183 2496.054 224.983 2496.074 C 231.683 2496.094 231.683 2489.994 238.483 2490.014 C 245.183 2490.033 245.183 2496.133 251.983 2496.153 C 258.683 2496.173 258.683 2490.073 265.484 2490.093 C 272.184 2490.113 272.183 2496.213 278.983 2496.233 C 285.683 2496.252 285.684 2490.152 292.484 2490.172 C 299.183 2490.192 299.183 2496.292 305.983 2496.312 C 312.683 2496.332 312.683 2490.231 319.483 2490.251 C 326.183 2490.271 326.183 2496.371 332.983 2496.391 C 339.683 2496.41 339.683 2490.31 346.483 2490.33 C 353.183 2490.349 353.184 2496.449 359.984 2496.469 C 366.783 2496.489 366.683 2490.389 373.483 2490.409 C 380.283 2490.429 380.183 2496.529 386.983 2496.549 C 393.783 2496.569 393.683 2490.468 400.483 2490.488 C 407.183 2490.508 407.183 2496.608 413.983 2496.628 C 420.683 2496.647 420.683 2490.547 427.483 2490.567 C 434.183 2490.587 434.183 2496.687 440.983 2496.707 C 447.683 2496.727 447.683 2490.627 454.483 2490.647 C 461.183 2490.666 461.183 2496.766 467.983 2496.785 C 474.683 2496.805 474.683 2490.705 481.483 2490.725 C 488.183 2490.745 488.183 2496.845 494.983 2496.865 C 501.683 2496.884 501.684 2490.784 508.484 2490.804 C 515.184 2490.824 515.183 2496.924 521.983 2496.944 C 528.683 2496.963 528.684 2490.863 535.484 2490.883 C 542.183 2490.903 542.183 2497.003 548.983 2497.023 C 555.683 2497.043 555.683 2490.943 562.483 2490.963 C 569.183 2490.982 569.183 2497.082 575.983 2497.102 C 582.683 2497.122 582.683 2491.022 589.483 2491.042 C 596.183 2491.061 596.184 2497.162 602.984 2497.18 C 609.684 2497.2 609.683 2491.1 616.483 2491.12 C 623.183 2491.14 623.183 2497.24 629.983 2497.26 C 636.683 2497.279 636.683 2491.179 643.483 2491.199 C 650.183 2491.219 650.183 2497.319 656.983 2497.339 C 663.683 2497.359 663.683 2491.259 670.483 2491.279 C 677.183 2491.298 677.183 2497.398 683.983 2497.418 C 690.683 2497.438 690.683 2491.338 697.483 2491.358 C 704.183 2491.377 704.183 2497.477 710.983 2497.497 C 717.683 2497.517 717.683 2491.417 724.483 2491.437 C 731.183 2491.456 731.183 2497.556 737.983 2497.576 C 887.071 2485.699 840.87 -39.359 742.612 7.513 C 736.468 10.444 735.81 1.393 729.11 1.373 C 722.311 1.354 722.311 7.454 715.611 7.435 C 708.811 7.415 708.811 1.315 702.111 1.295 C 695.311 1.275 695.311 7.375 688.611 7.355 C 681.811 7.336 681.811 1.235 675.111 1.216 C 668.311 1.196 668.311 7.296 661.611 7.276 C 654.811 7.256 654.811 1.156 648.11 1.137 C 641.31 1.117 641.311 7.217 634.611 7.197 C 627.811 7.177 627.81 1.077 621.11 1.057 C 614.31 1.037 614.311 7.137 607.611 7.118 C 600.811 7.098 600.81 0.998 594.11 0.979 C 587.31 0.959 587.311 7.059 580.611 7.04 C 573.811 7.02 573.81 0.92 567.11 0.9 C 560.31 0.88 560.311 6.98 553.611 6.96 C 546.812 6.94 546.81 0.84 540.11 0.821 C 533.31 0.801 533.312 6.901 526.612 6.881 C 519.812 6.861 519.81 0.761 513.11 0.741 C 506.31 0.721 506.312 6.821 499.611 6.802 C 492.811 6.782 492.81 0.682 486.11 0.662 C 479.31 0.642 479.31 6.742 472.61 6.723 C 465.81 6.704 465.811 0.604 459.111 0.584 C 452.311 0.564 452.31 6.664 445.61 6.644 C 438.81 6.624 438.811 0.524 432.111 0.505 C 425.311 0.485 425.31 6.585 418.61 6.565 C 411.81 6.545 411.81 0.445 405.11 0.425 C 398.31 0.405 398.41 6.506 391.61 6.486 C 384.81 6.466 384.91 0.366 378.11 0.346 C 371.31 0.326 371.41 6.427 364.61 6.407 C 357.81 6.387 357.81 0.287 351.11 0.267 C 344.31 0.247 344.31 6.347 337.61 6.327 C 330.81 6.308 330.81 0.208 324.11 0.189 C 317.31 0.169 317.31 6.269 310.61 6.249 C 303.81 6.229 303.81 0.129 297.11 0.11 C 290.31 0.09 290.311 6.19 283.611 6.17 C 276.811 6.15 276.81 0.05 270.11 0.03 C 263.31 0.01 263.311 6.11 256.61 6.091 C 249.81 6.071 249.81 -0.029 243.11 -0.049 C 236.31 -0.069 236.31 6.031 229.61 6.011 C 222.81 5.991 222.811 -0.109 216.111 -0.128 C 209.311 -0.148 209.31 5.952 202.61 5.933 C 195.81 5.913 195.811 -0.187 189.111 -0.206 C 182.311 -0.226 182.41 5.874 175.61 5.854 C 168.81 5.834 168.81 -0.266 162.11 -0.286 C 155.31 -0.306 155.31 5.794 148.61 5.775 C 141.81 5.755 141.81 -0.345 135.11 -0.365 C 128.31 -0.385 128.31 5.715 121.61 5.696 C 114.81 5.676 114.81 -0.425 108.11 -0.444 C 101.31 -0.464 101.31 5.636 94.61 5.616 C 87.81 5.596 87.81 -0.504 81.11 -0.523 C 74.31 -0.542 74.31 5.558 67.61 5.538 C 60.81 5.518 60.81 -0.582 54.11 -0.602 C 47.31 -0.622 47.311 5.478 40.611 5.459 C 33.811 5.439 33.81 -0.661 27.11 -0.681 C 20.31 -0.701 20.311 5.399 13.61 5.38 C 6.81 5.36 0.11 -0.76 0.11 -0.76" style=""/>
</svg>