<?xml version="1.0" encoding="utf-8"?>
<svg viewBox="0 0 750 2500" style="enable-background:new 0 0 750 2500;" xmlns="http://www.w3.org/2000/svg">
  <defs>
    <style type="text/css">
	.st0{fill-rule:evenodd;clip-rule:evenodd;}
</style>
  </defs>
  <path class="st0" d="M -1.5 3.9 C 8.1 1.4 13.4 10.8 23 10.9 C 33.6 10.7 44.5 -0.3 54 3.9 C 59.2 6.2 57.8 14.6 64.1 16 C 71.5 17.7 71.2 4.8 79 3.2 C 86.8 1.5 100.5 12.2 109.3 13.8 C 121.7 16.1 127.4 -3.5 140.1 1.4 C 147.9 4.4 153.9 12.5 160.2 13.1 C 168.6 13.9 174.3 6.9 181.4 3.6 C 192.5 -1.6 195.9 13.3 207.5 10.9 C 214.5 9.4 226.2 1.6 233.2 3.1 C 241.1 4.8 238.9 14.3 246 16 C 255.2 18.2 251.7 0.8 263.4 3.2 C 272.3 5 281 14.2 289.8 13.5 C 300 12.7 310.1 0.7 321.1 3 C 330.9 5 330.3 23.1 344.1 20 C 352.9 18 353.4 6.3 362.3 4 C 371.9 1.5 377.3 10.9 387 11 C 397.2 10.8 408.3 -0.2 417.8 4 C 422.9 6.3 423.7 12.9 427.7 13.5 C 435.2 14.7 434.7 4.9 442.5 3.3 C 450.4 1.7 464 12.4 472.8 14 C 485.2 16.3 489 -1.1 501.7 3.8 C 509.4 6.8 507.8 18.4 516.2 20.4 C 528.4 23.3 530.2 8.4 537.3 5.1 C 548.5 -0.1 550.5 14.6 562.3 13.6 C 570.9 12.9 577.3 -0.4 584.3 1.1 C 592.3 2.8 596.6 18 608.2 17 C 617.7 16.2 615.3 0.9 627 3.2 C 635.8 5 648.9 15.6 657.6 13.8 C 667 11.9 673.7 0.6 684.7 2.9 C 694.5 4.9 693.9 23 707.7 19.9 C 716.5 17.9 726.779 1.682 735.7 3.9 C 772.462 13.041 754.029 -17.462 754.029 1249.44 C 754.029 2472.743 789.366 2531.315 733.357 2480.98 C 726.52 2474.835 724.157 2494.98 715.357 2496.98 C 701.557 2500.08 702.157 2481.98 692.357 2479.98 C 681.357 2477.68 674.657 2488.98 665.257 2490.88 C 656.557 2492.68 643.457 2482.08 634.657 2480.28 C 622.957 2477.98 625.357 2493.28 615.857 2494.08 C 604.257 2495.08 599.957 2479.88 591.957 2478.18 C 584.957 2476.68 578.557 2489.98 569.957 2490.68 C 558.157 2491.68 556.157 2476.98 544.957 2482.18 C 537.857 2485.48 536.057 2500.38 523.857 2497.48 C 515.457 2495.48 517.057 2483.88 509.357 2480.88 C 496.657 2475.98 492.857 2493.38 480.457 2491.08 C 471.657 2489.48 458.057 2478.78 450.157 2480.38 C 442.357 2481.98 442.857 2491.78 435.357 2490.58 C 431.357 2489.98 430.557 2483.38 425.457 2481.08 C 415.957 2476.88 404.857 2487.88 394.657 2488.08 C 384.957 2487.98 379.557 2478.58 369.957 2481.08 C 361.057 2483.38 360.557 2495.08 351.757 2497.08 C 337.957 2500.18 338.557 2482.08 328.757 2480.08 C 317.757 2477.78 307.657 2489.78 297.457 2490.58 C 288.657 2491.28 279.957 2482.08 271.057 2480.28 C 259.357 2477.88 262.857 2495.28 253.657 2493.08 C 246.557 2491.38 248.757 2481.88 240.857 2480.18 C 233.857 2478.68 222.157 2486.48 215.157 2487.98 C 203.557 2490.38 200.157 2475.48 189.057 2480.68 C 181.957 2483.98 176.257 2490.98 167.857 2490.18 C 161.557 2489.58 155.557 2481.48 147.757 2478.48 C 135.057 2473.58 129.357 2493.18 116.957 2490.88 C 108.157 2489.28 94.457 2478.58 86.657 2480.28 C 78.857 2481.88 79.157 2494.78 71.757 2493.08 C 65.457 2491.68 66.857 2483.28 61.657 2480.98 C 52.157 2476.78 41.257 2487.78 30.657 2487.98 C 21.057 2487.88 5.757 2478.48 -3.843 2480.98 C -3.843 2480.98 0.179 2577.961 0.179 1243.54 C 0.179 97.976 -5.8 4.538 -5.8 6.1"/>
</svg>